<?xml version="1.0" standalone="no"?>
<svg xmlns="http://www.w3.org/2000/svg" width="1120" height="514.75"><g transform="translate(70,20)"><g class="x axis" transform="translate(0,400)" fill="none" font-size="10" font-family="sans-serif" text-anchor="middle"><path class="domain" stroke="#000" d="M0.5,6V0.5H1000.5V6"/><g class="tick" opacity="1" transform="translate(261.904761904762,0)"><line stroke="#000" y2="6"/><text fill="#000" y="9" dy="-0.5em" dx="-.8em" style="text-anchor: end;" transform="rotate(-90)">No (n=25)</text></g><g class="tick" opacity="1" transform="translate(738.0952380952381,0)"><line stroke="#000" y2="6"/><text fill="#000" y="9" dy="-0.5em" dx="-.8em" style="text-anchor: end;" transform="rotate(-90)">Yes (n=6)</text></g></g><g class="y axis" fill="none" font-size="10" font-family="sans-serif" text-anchor="end"><path class="domain" stroke="#000" d="M-6,400.5H0.5V0.5H-6"/><g class="tick" opacity="1" transform="translate(0,400.5)"><line stroke="#000" x2="-6"/><text fill="#000" x="-9" dy="0.32em">2.5</text></g><g class="tick" opacity="1" transform="translate(0,350.5)"><line stroke="#000" x2="-6"/><text fill="#000" x="-9" dy="0.32em">3.0</text></g><g class="tick" opacity="1" transform="translate(0,300.5)"><line stroke="#000" x2="-6"/><text fill="#000" x="-9" dy="0.32em">3.5</text></g><g class="tick" opacity="1" transform="translate(0,250.5)"><line stroke="#000" x2="-6"/><text fill="#000" x="-9" dy="0.32em">4.0</text></g><g class="tick" opacity="1" transform="translate(0,200.5)"><line stroke="#000" x2="-6"/><text fill="#000" x="-9" dy="0.32em">4.5</text></g><g class="tick" opacity="1" transform="translate(0,150.5)"><line stroke="#000" x2="-6"/><text fill="#000" x="-9" dy="0.32em">5.0</text></g><g class="tick" opacity="1" transform="translate(0,100.5)"><line stroke="#000" x2="-6"/><text fill="#000" x="-9" dy="0.32em">5.5</text></g><g class="tick" opacity="1" transform="translate(0,50.5)"><line stroke="#000" x2="-6"/><text fill="#000" x="-9" dy="0.32em">6.0</text></g><g class="tick" opacity="1" transform="translate(0,0.5)"><line stroke="#000" x2="-6"/><text fill="#000" x="-9" dy="0.32em">6.5</text></g></g><text class="x label" text-anchor="middle" transform="translate(500,484.75)" style="font: 12px sans-serif;">reported-antibiotic-usage</text><text class="y label" text-anchor="middle" transform="translate(-50,200)rotate(-90)" style="font: 12px sans-serif;">shannon_entropy</text><g class="outlier" transform="translate(261.904761904762,0)"/><line class="center" x1="261.904761904762" y1="357.26445551" x2="261.904761904762" y2="15.24582698000006" stroke-dasharray="2,2" stroke-width="1" stroke="black"/><line class="center" x1="738.0952380952381" y1="340.22581246" x2="738.0952380952381" y2="273.34347087" stroke-dasharray="2,2" stroke-width="1" stroke="black"/><g class="outlier" transform="translate(738.0952380952381,0)"/><rect class="box" x="47.619047619047706" y="161.32874863" width="428.57142857142856" height="123.75786878000002" fill="white" stroke-width="1" stroke="black"/><rect class="box" x="523.8095238095239" y="278.058215175" width="428.57142857142856" height="35.14441622750002" fill="white" stroke-width="1" stroke="black"/><line class="median" x1="47.619047619047706" y1="203.77079006" x2="476.19047619047626" y2="203.77079006" stroke-width="1" stroke="black"/><line class="median" x1="523.8095238095239" y1="291.41502037000004" x2="952.3809523809524" y2="291.41502037000004" stroke-width="1" stroke="black"/><g class="whisker" transform="translate(154.76190476190484,0)"><line class="median" x1="0" y1="357.26445551" x2="214.28571428571428" y2="357.26445551" stroke-width="1" stroke="black"/><line class="median" x1="0" y1="15.24582698000006" x2="214.28571428571428" y2="15.24582698000006" stroke-width="1" stroke="black"/></g><g class="whisker" transform="translate(630.952380952381,0)"><line class="median" x1="0" y1="340.22581246" x2="214.28571428571428" y2="340.22581246" stroke-width="1" stroke="black"/><line class="median" x1="0" y1="273.34347087" x2="214.28571428571428" y2="273.34347087" stroke-width="1" stroke="black"/></g></g></svg>