<?xml version="1.0" standalone="no"?>
<svg xmlns="http://www.w3.org/2000/svg" width="1120" height="540.3125"><g transform="translate(70,20)"><g class="x axis" transform="translate(0,400)" fill="none" font-size="10" font-family="sans-serif" text-anchor="middle"><path class="domain" stroke="#000" d="M0.5,6V0.5H1000.5V6"/><g class="tick" opacity="1" transform="translate(134.1463414634146,0)"><line stroke="#000" y2="6"/><text fill="#000" y="9" dy="-0.5em" dx="-.8em" style="text-anchor: end;" transform="rotate(-90)">gut (n=8)</text></g><g class="tick" opacity="1" transform="translate(378.04878048780483,0)"><line stroke="#000" y2="6"/><text fill="#000" y="9" dy="-0.5em" dx="-.8em" style="text-anchor: end;" transform="rotate(-90)">left palm (n=8)</text></g><g class="tick" opacity="1" transform="translate(621.9512195121952,0)"><line stroke="#000" y2="6"/><text fill="#000" y="9" dy="-0.5em" dx="-.8em" style="text-anchor: end;" transform="rotate(-90)">right palm (n=6)</text></g><g class="tick" opacity="1" transform="translate(865.8536585365853,0)"><line stroke="#000" y2="6"/><text fill="#000" y="9" dy="-0.5em" dx="-.8em" style="text-anchor: end;" transform="rotate(-90)">tongue (n=9)</text></g></g><g class="y axis" fill="none" font-size="10" font-family="sans-serif" text-anchor="end"><path class="domain" stroke="#000" d="M-6,400.5H0.5V0.5H-6"/><g class="tick" opacity="1" transform="translate(0,400.5)"><line stroke="#000" x2="-6"/><text fill="#000" x="-9" dy="0.32em">2.5</text></g><g class="tick" opacity="1" transform="translate(0,350.5)"><line stroke="#000" x2="-6"/><text fill="#000" x="-9" dy="0.32em">3.0</text></g><g class="tick" opacity="1" transform="translate(0,300.5)"><line stroke="#000" x2="-6"/><text fill="#000" x="-9" dy="0.32em">3.5</text></g><g class="tick" opacity="1" transform="translate(0,250.5)"><line stroke="#000" x2="-6"/><text fill="#000" x="-9" dy="0.32em">4.0</text></g><g class="tick" opacity="1" transform="translate(0,200.5)"><line stroke="#000" x2="-6"/><text fill="#000" x="-9" dy="0.32em">4.5</text></g><g class="tick" opacity="1" transform="translate(0,150.5)"><line stroke="#000" x2="-6"/><text fill="#000" x="-9" dy="0.32em">5.0</text></g><g class="tick" opacity="1" transform="translate(0,100.5)"><line stroke="#000" x2="-6"/><text fill="#000" x="-9" dy="0.32em">5.5</text></g><g class="tick" opacity="1" transform="translate(0,50.5)"><line stroke="#000" x2="-6"/><text fill="#000" x="-9" dy="0.32em">6.0</text></g><g class="tick" opacity="1" transform="translate(0,0.5)"><line stroke="#000" x2="-6"/><text fill="#000" x="-9" dy="0.32em">6.5</text></g></g><text class="x label" text-anchor="middle" transform="translate(500,510.3125)" style="font: 12px sans-serif;">body-site</text><text class="y label" text-anchor="middle" transform="translate(-50,200)rotate(-90)" style="font: 12px sans-serif;">shannon_entropy</text><g class="outlier" transform="translate(134.1463414634146,0)"/><line class="center" x1="134.1463414634146" y1="340.22581246" x2="134.1463414634146" y2="184.62724118000003" stroke-dasharray="2,2" stroke-width="1" stroke="black"/><line class="center" x1="378.04878048780483" y1="273.34347087" x2="378.04878048780483" y2="15.24582698000006" stroke-dasharray="2,2" stroke-width="1" stroke="black"/><line class="center" x1="621.9512195121952" y1="294.31823894" x2="621.9512195121952" y2="43.11289341000003" stroke-dasharray="2,2" stroke-width="1" stroke="black"/><line class="center" x1="865.8536585365853" y1="357.26445551" x2="865.8536585365853" y2="285.08661741000003" stroke-dasharray="2,2" stroke-width="1" stroke="black"/><g class="outlier" transform="translate(378.04878048780483,0)"/><g class="outlier" transform="translate(621.9512195121952,0)"/><g class="outlier" transform="translate(865.8536585365853,0)"><circle r="4" stroke-width="1" stroke="black" stroke-opacity="0.3" fill="black" fill-opacity="0.33" cx="0" cy="226.29516937"/></g><rect class="box" x="24.390243902438954" y="198.99305445" width="219.51219512195127" height="78.89283893750002" fill="white" stroke-width="1" stroke="black"/><rect class="box" x="268.29268292682923" y="124.24421191000005" width="219.51219512195127" height="82.79538114250002" fill="white" stroke-width="1" stroke="black"/><rect class="box" x="512.1951219512196" y="110.37274602749994" width="219.51219512195127" height="103.623527225" fill="white" stroke-width="1" stroke="black"/><rect class="box" x="756.0975609756097" y="288.5118018" width="219.51219512195127" height="30.985627090000037" fill="white" stroke-width="1" stroke="black"/><line class="median" x1="24.390243902438954" y1="253.75688711500004" x2="243.90243902439022" y2="253.75688711500004" stroke-width="1" stroke="black"/><line class="median" x1="268.29268292682923" y1="177.838846595" x2="487.8048780487805" y2="177.838846595" stroke-width="1" stroke="black"/><line class="median" x1="512.1951219512196" y1="165.88850362" x2="731.7073170731708" y2="165.88850362" stroke-width="1" stroke="black"/><line class="median" x1="756.0975609756097" y1="311.22006234" x2="975.6097560975609" y2="311.22006234" stroke-width="1" stroke="black"/><g class="whisker" transform="translate(79.26829268292677,0)"><line class="median" x1="0" y1="340.22581246" x2="109.75609756097563" y2="340.22581246" stroke-width="1" stroke="black"/><line class="median" x1="0" y1="184.62724118000003" x2="109.75609756097563" y2="184.62724118000003" stroke-width="1" stroke="black"/></g><g class="whisker" transform="translate(323.17073170731703,0)"><line class="median" x1="0" y1="273.34347087" x2="109.75609756097563" y2="273.34347087" stroke-width="1" stroke="black"/><line class="median" x1="0" y1="15.24582698000006" x2="109.75609756097563" y2="15.24582698000006" stroke-width="1" stroke="black"/></g><g class="whisker" transform="translate(567.0731707317074,0)"><line class="median" x1="0" y1="294.31823894" x2="109.75609756097563" y2="294.31823894" stroke-width="1" stroke="black"/><line class="median" x1="0" y1="43.11289341000003" x2="109.75609756097563" y2="43.11289341000003" stroke-width="1" stroke="black"/></g><g class="whisker" transform="translate(810.9756097560975,0)"><line class="median" x1="0" y1="357.26445551" x2="109.75609756097563" y2="357.26445551" stroke-width="1" stroke="black"/><line class="median" x1="0" y1="285.08661741000003" x2="109.75609756097563" y2="285.08661741000003" stroke-width="1" stroke="black"/></g></g></svg>